Muli-600.ufo
<glyph name="dollar" format="1">
  <advance width="1215.28"/>
  <unicode hex="0024"/>
  <outline>
    <contour>
      <point x="580.2" y="-201.24" type="line"/>
      <point x="740.28" y="1623.16" type="line"/>
      <point x="827.2" y="1623.16" type="line"/>
      <point x="667.12" y="-201.24" type="line"/>
    </contour>
    <component base="S"/>
  </outline>
</glyph>
<glyph name="percent" format="1">
  <advance width="1889.85017988"/>
  <unicode hex="0025"/>
  <outline>
    <contour>
      <point x="557.68" y="850.92" type="curve" smooth="yes"/>
      <point x="437.48" y="850.92"/>
      <point x="395.72" y="958.0"/>
      <point x="407.36" y="1091.08" type="curve" smooth="yes"/>
      <point x="418.0" y="1215.12"/>
      <point x="474.64" y="1333.2"/>
      <point x="600.24" y="1333.2" type="curve" smooth="yes"/>
      <point x="724.56" y="1333.2"/>
      <point x="760.88" y="1218.64"/>
      <point x="749.92" y="1092.36" type="curve" smooth="yes"/>
      <point x="738.6" y="961.2"/>
      <point x="677.88" y="850.92"/>
    </contour>
    <contour>
      <point x="544.68" y="712.76" type="curve" smooth="yes"/>
      <point x="767.08" y="712.76"/>
      <point x="913.36" y="877.32"/>
      <point x="932.36" y="1092.04" type="curve" smooth="yes"/>
      <point x="950.68" y="1304.24"/>
      <point x="837.6" y="1471.04"/>
      <point x="612.6" y="1471.04" type="curve" smooth="yes"/>
      <point x="389.2" y="1471.04"/>
      <point x="242.92" y="1301.68"/>
      <point x="224.6" y="1090.76" type="curve" smooth="yes"/>
      <point x="205.6" y="875.72"/>
      <point x="321.0" y="712.76"/>
    </contour>
    <contour>
      <point x="411.589435548" y="0.0" type="line"/>
      <point x="589.589435548" y="0.0" type="line"/>
      <point x="1596.98943555" y="1456.0" type="line"/>
      <point x="1417.98943555" y="1456.0" type="line"/>
    </contour>
    <contour>
      <point x="1420.50943555" y="114.56" type="curve" smooth="yes"/>
      <point x="1300.30943555" y="114.56"/>
      <point x="1258.54943555" y="221.64"/>
      <point x="1270.18943555" y="354.08" type="curve" smooth="yes"/>
      <point x="1280.82943555" y="478.12"/>
      <point x="1337.14943555" y="596.84"/>
      <point x="1463.38943555" y="596.84" type="curve" smooth="yes"/>
      <point x="1588.02943555" y="596.84"/>
      <point x="1623.38943555" y="482.6"/>
      <point x="1612.42943555" y="356.32" type="curve" smooth="yes"/>
      <point x="1601.10943555" y="225.16"/>
      <point x="1541.02943555" y="114.56"/>
    </contour>
    <contour>
      <point x="1407.50943555" y="-23.6" type="curve" smooth="yes"/>
      <point x="1629.90943555" y="-23.6"/>
      <point x="1776.18943555" y="141.28"/>
      <point x="1795.18943555" y="356.0" type="curve" smooth="yes"/>
      <point x="1813.50943555" y="567.88"/>
      <point x="1700.42943555" y="735.0"/>
      <point x="1475.42943555" y="735.0" type="curve" smooth="yes"/>
      <point x="1252.02943555" y="735.0"/>
      <point x="1105.74943555" y="565.32"/>
      <point x="1087.42943555" y="354.4" type="curve" smooth="yes"/>
      <point x="1068.42943555" y="139.68"/>
      <point x="1184.46943555" y="-23.6"/>
    </contour>
  </outline>
</glyph>
<glyph name="less" format="1">
  <advance width="1366.16"/>
  <unicode hex="003C"/>
  <outline>
    <contour>
      <point x="1128.72" y="34.2" type="line"/>
      <point x="186.28" y="510.04" type="line"/>
      <point x="194.96" y="614.0" type="line"/>
      <point x="1225.76" y="1084.8" type="line"/>
      <point x="1208.36" y="887.96" type="line"/>
      <point x="470.24" y="559.92" type="line"/>
      <point x="1146.12" y="227.68" type="line"/>
    </contour>
  </outline>
</glyph>
<glyph name="at" format="1">
  <advance width="1772.48"/>
  <unicode hex="0040"/>
  <outline>
    <contour>
      <point x="853.16" y="430.64" type="curve" smooth="yes"/>
      <point x="998.68" y="430.64"/>
      <point x="1125.2" y="628.08"/>
      <point x="1142.52" y="826.56" type="curve" smooth="yes"/>
      <point x="1151.16" y="924.68"/>
      <point x="1123.92" y="983.16"/>
      <point x="1038.24" y="983.16" type="curve" smooth="yes"/>
      <point x="880.04" y="983.16"/>
      <point x="750.16" y="769.32"/>
      <point x="734.84" y="596.52" type="curve" smooth="yes"/>
      <point x="726.2" y="497.44"/>
      <point x="767.4" y="430.64"/>
    </contour>
    <contour>
      <point x="919.64" y="-90.32" type="curve" smooth="yes"/>
      <point x="459.88" y="-90.32"/>
      <point x="137.64" y="215.68"/>
      <point x="178.36" y="677.28" type="curve" smooth="yes"/>
      <point x="221.12" y="1162.72"/>
      <point x="622.12" y="1480.08"/>
      <point x="1071.96" y="1480.08" type="curve" smooth="yes"/>
      <point x="1480.8" y="1480.08"/>
      <point x="1763.76" y="1197.92"/>
      <point x="1728.72" y="797.88" type="curve" smooth="yes"/>
      <point x="1704.76" y="522.4"/>
      <point x="1517.04" y="256.56"/>
      <point x="1299.04" y="256.56" type="curve" smooth="yes"/>
      <point x="1159.8" y="256.56"/>
      <point x="1101.92" y="339.12"/>
      <point x="1104.28" y="453.28" type="curve" smooth="yes"/>
      <point x="1105.32" y="469.44"/>
      <point x="1106.72" y="486.6"/>
      <point x="1110.12" y="503.76" type="curve"/>
      <point x="1041.08" y="371.76"/>
      <point x="934.96" y="266.48"/>
      <point x="799.96" y="266.48" type="curve" smooth="yes"/>
      <point x="647.36" y="266.48"/>
      <point x="516.56" y="386.56"/>
      <point x="537.6" y="626.24" type="curve" smooth="yes"/>
      <point x="563.32" y="922.92"/>
      <point x="824.72" y="1155.72"/>
      <point x="1026.84" y="1155.72" type="curve" smooth="yes"/>
      <point x="1119.56" y="1155.72"/>
      <point x="1193.64" y="1105.92"/>
      <point x="1217.2" y="999.84" type="curve"/>
      <point x="1247.68" y="1116.88" type="line"/>
      <point x="1429.76" y="1116.88" type="line"/>
      <point x="1314.2" y="709.92" type="line" smooth="yes"/>
      <point x="1284.56" y="607.56"/>
      <point x="1265.36" y="538.72"/>
      <point x="1261.72" y="497.36" type="curve" smooth="yes"/>
      <point x="1255.0" y="417.72"/>
      <point x="1279.84" y="377.92"/>
      <point x="1326.36" y="377.92" type="curve" smooth="yes"/>
      <point x="1429.04" y="377.92"/>
      <point x="1564.48" y="557.44"/>
      <point x="1585.84" y="803.56" type="curve" smooth="yes"/>
      <point x="1616.24" y="1150.56"/>
      <point x="1378.52" y="1346.36"/>
      <point x="1074.96" y="1346.36" type="curve" smooth="yes"/>
      <point x="716.64" y="1346.36"/>
      <point x="388.32" y="1096.88"/>
      <point x="351.88" y="676.64" type="curve" smooth="yes"/>
      <point x="316.48" y="273.52"/>
      <point x="602.16" y="50.16"/>
      <point x="945.52" y="50.16" type="curve" smooth="yes"/>
      <point x="1109.76" y="50.16"/>
      <point x="1280.56" y="101.32"/>
      <point x="1428.96" y="199.72" type="curve"/>
      <point x="1490.6" y="108.24" type="line"/>
      <point x="1334.72" y="-17.2"/>
      <point x="1129.0" y="-90.32"/>
    </contour>
  </outline>
</glyph>
<glyph name="F" format="1">
  <advance width="1134.49141019"/>
  <unicode hex="0046"/>
  <outline>
    <contour>
      <point x="188.64" y="0.0" type="line"/>
      <point x="316.64" y="1456.0" type="line"/>
      <point x="1170.2" y="1456.0" type="line"/>
      <point x="1153.8" y="1267.88" type="line"/>
      <point x="520.52" y="1267.88" type="line"/>
      <point x="482.28" y="838.12" type="line"/>
      <point x="1085.92" y="838.12" type="line"/>
      <point x="1069.52" y="652.04" type="line"/>
      <point x="465.88" y="652.04" type="line"/>
      <point x="408.92" y="0.0" type="line"/>
    </contour>
  </outline>
</glyph>
<glyph name="K" format="1">
  <advance width="1308.92"/>
  <unicode hex="004B"/>
  <outline>
    <contour>
      <point x="188.64" y="0.0" type="line"/>
      <point x="316.64" y="1456.0" type="line"/>
      <point x="536.24" y="1456.0" type="line"/>
      <point x="478.6" y="806.68" type="line"/>
      <point x="1126.52" y="1456.0" type="line"/>
      <point x="1401.0" y="1456.0" type="line"/>
      <point x="692.0" y="749.76" type="line"/>
      <point x="1314.76" y="0.0" type="line"/>
      <point x="1035.24" y="0.0" type="line"/>
      <point x="469.2" y="680.12" type="line"/>
      <point x="409.6" y="0.0" type="line"/>
    </contour>
  </outline>
</glyph>
<glyph name="M" format="1">
  <advance width="1944.85650591"/>
  <unicode hex="004D"/>
  <outline>
    <contour>
      <point x="188.64" y="0.0" type="line"/>
      <point x="316.64" y="1456.0" type="line"/>
      <point x="580.04" y="1456.0" type="line"/>
      <point x="920.68" y="520.24" type="line"/>
      <point x="1000.92" y="299.0" type="line"/>
      <point x="1121.6" y="525.28" type="line"/>
      <point x="1628.6" y="1456.0" type="line"/>
      <point x="1883.6" y="1456.0" type="line"/>
      <point x="1755.6" y="0.0" type="line"/>
      <point x="1547.48" y="0.0" type="line"/>
      <point x="1646.04" y="1099.72" type="line"/>
      <point x="1545.68" y="914.48" type="line"/>
      <point x="1053.84" y="0.0" type="line"/>
      <point x="895.04" y="0.0" type="line"/>
      <point x="562.68" y="928.88" type="line"/>
      <point x="498.32" y="1111.96" type="line"/>
      <point x="401.48" y="0.0" type="line"/>
    </contour>
  </outline>
</glyph>
<glyph name="bracketleft" format="1">
  <advance width="693.407126557"/>
  <unicode hex="005B"/>
  <outline>
    <contour>
      <point x="154.727126557" y="-224.76" type="line"/>
      <point x="302.007126557" y="1456.0" type="line"/>
      <point x="717.167126557" y="1456.0" type="line"/>
      <point x="702.767126557" y="1294.56" type="line"/>
      <point x="501.607126557" y="1294.56" type="line"/>
      <point x="383.127126557" y="-63.32" type="line"/>
      <point x="585.287126557" y="-63.32" type="line"/>
      <point x="570.887126557" y="-224.76" type="line"/>
    </contour>
  </outline>
</glyph>
<glyph name="d" format="1">
  <advance width="1254.52"/>
  <unicode hex="0064"/>
  <outline>
    <contour>
      <point x="568.52" y="-22.32" type="curve" smooth="yes"/>
      <point x="303.0" y="-22.32"/>
      <point x="114.04" y="181.68"/>
      <point x="142.72" y="507.36" type="curve" smooth="yes"/>
      <point x="169.68" y="814.48"/>
      <point x="363.0" y="1051.68"/>
      <point x="674.4" y="1051.68" type="curve" smooth="yes"/>
      <point x="828.36" y="1051.68"/>
      <point x="929.48" y="973.28"/>
      <point x="963.44" y="897.84" type="curve"/>
      <point x="1013.04" y="1472.28" type="line"/>
      <point x="1225.64" y="1472.28" type="line"/>
      <point x="1120.36" y="266.88" type="line"/>
      <point x="1116.4" y="221.56"/>
      <point x="1113.8" y="170.84"/>
      <point x="1104.36" y="0.0" type="curve"/>
      <point x="887.04" y="0.0" type="line"/>
      <point x="899.28" y="156.28" type="line"/>
      <point x="859.04" y="74.8"/>
      <point x="749.48" y="-22.32"/>
    </contour>
    <contour>
      <point x="619.04" y="149.12" type="curve" smooth="yes"/>
      <point x="812.88" y="149.12"/>
      <point x="916.88" y="312.0"/>
      <point x="935.44" y="525.56" type="curve" smooth="yes"/>
      <point x="953.4" y="728.76"/>
      <point x="872.32" y="878.92"/>
      <point x="684.16" y="878.92" type="curve" smooth="yes"/>
      <point x="495.04" y="878.92"/>
      <point x="385.64" y="723.64"/>
      <point x="367.04" y="512.44" type="curve" smooth="yes"/>
      <point x="349.44" y="307.2"/>
      <point x="427.44" y="149.12"/>
    </contour>
  </outline>
</glyph>
<glyph name="t" format="1">
  <advance width="757.971711762"/>
  <unicode hex="0074"/>
  <outline>
    <contour>
      <point x="696.47930876" y="0.68" type="line"/>
      <point x="653.99930876" y="0.68" type="line"/>
      <point x="369.83930876" y="0.68"/>
      <point x="207.39930876" y="33.8"/>
      <point x="235.47930876" y="353.48" type="curve" smooth="yes"/>
      <point x="281.75930876" y="884.32" type="line"/>
      <point x="101.87930876" y="884.32" type="line"/>
      <point x="114.27930876" y="1026.0" type="line"/>
      <point x="301.19930876" y="1026.0" type="line"/>
      <point x="323.83930876" y="1279.64" type="line"/>
      <point x="534.75930876" y="1341.6" type="line"/>
      <point x="506.75930876" y="1026.0" type="line"/>
      <point x="770.79930876" y="1026.0" type="line"/>
      <point x="758.39930876" y="884.32" type="line"/>
      <point x="494.35930876" y="884.32" type="line"/>
      <point x="446.75930876" y="333.88" type="line" smooth="yes"/>
      <point x="433.47930876" y="181.44"/>
      <point x="477.67930876" y="164.72"/>
      <point x="710.87930876" y="164.72" type="curve"/>
    </contour>
  </outline>
</glyph>
<glyph name="v" format="1">
  <advance width="1090.96"/>
  <unicode hex="0076"/>
  <outline>
    <contour>
      <point x="443.603368778" y="0.0" type="line"/>
      <point x="103.203368778" y="1026.0" type="line"/>
      <point x="336.364278009" y="1026.0" type="line"/>
      <point x="509.72" y="434.32" type="line"/>
      <point x="569.28" y="228.0" type="line"/>
      <point x="661.24" y="434.32" type="line"/>
      <point x="937.243368778" y="1026.0" type="line"/>
      <point x="1167.28336878" y="1026.0" type="line"/>
      <point x="644.243368778" y="0.0" type="line"/>
    </contour>
  </outline>
</glyph>
<glyph name="y" format="1">
  <advance width="1092.28"/>
  <unicode hex="0079"/>
  <outline>
    <contour>
      <point x="173.323368778" y="-439.92" type="curve"/>
      <point x="113.843368778" y="-294.28" type="line"/>
      <point x="304.123368778" y="-236.8"/>
      <point x="403.163368778" y="-126.28"/>
      <point x="442.083368778" y="-40.48" type="curve" smooth="yes"/>
      <point x="467.763368778" y="15.56" type="line"/>
      <point x="130.403368778" y="1026.0" type="line"/>
      <point x="349.283368778" y="1026.0" type="line"/>
      <point x="586.163368778" y="239.32" type="line"/>
      <point x="930.163368778" y="1026.0" type="line"/>
      <point x="1151.40336878" y="1026.0" type="line"/>
      <point x="635.443368778" y="-70.08" type="line" smooth="yes"/>
      <point x="535.803368778" y="-275.96"/>
      <point x="381.643368778" y="-400.16"/>
    </contour>
  </outline>
</glyph>
<glyph name="asciitilde" format="1">
  <advance width="1366.84"/>
  <unicode hex="007E"/>
  <outline>
    <contour>
      <point x="334.2" y="356.44" type="curve"/>
      <point x="180.0" y="433.88" type="line"/>
      <point x="222.36" y="581.4"/>
      <point x="342.52" y="709.68"/>
      <point x="517.0" y="709.68" type="curve" smooth="yes"/>
      <point x="600.48" y="709.68"/>
      <point x="699.04" y="664.44"/>
      <point x="783.12" y="625.64" type="curve" smooth="yes"/>
      <point x="808.72" y="615.4"/>
      <point x="911.64" y="566.08"/>
      <point x="946.72" y="566.08" type="curve" smooth="yes"/>
      <point x="1015.36" y="566.08"/>
      <point x="1074.96" y="653.08"/>
      <point x="1104.28" y="744.08" type="curve"/>
      <point x="1275.6" y="690.12" type="line"/>
      <point x="1222.2" y="518.2"/>
      <point x="1101.92" y="391.64"/>
      <point x="933.04" y="391.64" type="curve" smooth="yes"/>
      <point x="870.32" y="391.64"/>
      <point x="789.28" y="428.04"/>
      <point x="710.96" y="467.16" type="curve" smooth="yes"/>
      <point x="685.68" y="477.72"/>
      <point x="557.4" y="536.92"/>
      <point x="506.64" y="536.92" type="curve" smooth="yes"/>
      <point x="422.0" y="536.92"/>
      <point x="365.56" y="451.12"/>
    </contour>
  </outline>
</glyph>
<glyph name="guillemotleft" format="1">
  <advance width="1156.0"/>
  <unicode hex="00AB"/>
  <outline>
    <contour>
      <point x="397.68" y="163.52" type="line"/>
      <point x="156.92" y="541.0" type="line"/>
      <point x="469.68" y="918.76" type="line"/>
      <point x="688.84" y="918.76" type="line"/>
      <point x="384.04" y="540.32" type="line"/>
      <point x="612.48" y="163.52" type="line"/>
    </contour>
    <contour>
      <point x="801.68" y="163.52" type="line"/>
      <point x="560.92" y="541.0" type="line"/>
      <point x="873.36" y="918.76" type="line"/>
      <point x="1089.48" y="918.76" type="line"/>
      <point x="788.72" y="540.32" type="line"/>
      <point x="1015.8" y="163.52" type="line"/>
    </contour>
  </outline>
</glyph>
<glyph name="macron" format="1">
  <advance width="728.0"/>
  <unicode hex="00AF"/>
  <outline>
    <contour>
      <point x="169.2" y="1191.84" type="line"/>
      <point x="182.24" y="1351.0" type="line"/>
      <point x="784.52" y="1351.0" type="line"/>
      <point x="771.48" y="1191.84" type="line"/>
    </contour>
  </outline>
</glyph>
<glyph name="onesuperior" format="1">
  <advance width="927.6"/>
  <unicode hex="00B9"/>
  <outline>
    <contour>
      <point x="308.68" y="645.64" type="line"/>
      <point x="320.76" y="783.4" type="line"/>
      <point x="470.24" y="783.4" type="line"/>
      <point x="512.44" y="1292.92" type="line"/>
      <point x="471.52" y="1274.0"/>
      <point x="382.24" y="1250.36"/>
      <point x="334.72" y="1233.76" type="curve"/>
      <point x="349.76" y="1383.48" type="line"/>
      <point x="434.68" y="1410.56"/>
      <point x="516.2" y="1437.88"/>
      <point x="560.8" y="1462.48" type="curve"/>
      <point x="697.4" y="1481.56" type="line"/>
      <point x="636.12" y="781.08" type="line"/>
      <point x="780.16" y="781.08" type="line"/>
      <point x="768.08" y="645.64" type="line"/>
    </contour>
  </outline>
</glyph>
<glyph name="ordmasculine" format="1">
  <advance width="881.348060121"/>
  <unicode hex="00BA"/>
  <outline>
    <contour>
      <point x="529.868252666" y="881.12" type="curve" smooth="yes"/>
      <point x="648.068252666" y="881.12"/>
      <point x="720.748252666" y="979.84"/>
      <point x="730.388252666" y="1093.16" type="curve" smooth="yes"/>
      <point x="741.028252666" y="1214.16"/>
      <point x="685.268252666" y="1310.52"/>
      <point x="566.788252666" y="1310.52" type="curve" smooth="yes"/>
      <point x="450.268252666" y="1310.52"/>
      <point x="374.868252666" y="1211.8"/>
      <point x="364.908252666" y="1096.48" type="curve" smooth="yes"/>
      <point x="354.268252666" y="977.16"/>
      <point x="405.708252666" y="881.12"/>
    </contour>
    <contour>
      <point x="518.828252666" y="735.04" type="curve" smooth="yes"/>
      <point x="270.308252666" y="735.04"/>
      <point x="155.228252666" y="892.4"/>
      <point x="173.228252666" y="1098.16" type="curve" smooth="yes"/>
      <point x="190.908252666" y="1298.56"/>
      <point x="342.028252666" y="1456.28"/>
      <point x="579.828252666" y="1456.28" type="curve" smooth="yes"/>
      <point x="819.948252666" y="1456.28"/>
      <point x="938.428252666" y="1295.52"/>
      <point x="920.748252666" y="1094.48" type="curve" smooth="yes"/>
      <point x="903.748252666" y="897.76"/>
      <point x="757.308252666" y="735.04"/>
    </contour>
  </outline>
</glyph>
<glyph name="tbar" format="1">
  <advance width="772.92"/>
  <unicode hex="0167"/>
  <outline>
    <contour>
      <point x="96.76" y="544.4" type="line"/>
      <point x="110.8" y="704.52" type="line"/>
      <point x="731.64" y="704.52" type="line"/>
      <point x="717.6" y="544.4" type="line"/>
    </contour>
    <component base="t"/>
  </outline>
</glyph>
<glyph name="dotlessj" format="1">
  <advance width="548.6"/>
  <unicode hex="0237"/>
  <outline>
    <contour>
      <point x="44.28" y="-382.8" type="curve" smooth="yes"/>
      <point x="-3.72" y="-382.8"/>
      <point x="-52.32" y="-378.88"/>
      <point x="-111.32" y="-367.0" type="curve"/>
      <point x="-81.28" y="-210.48" type="line"/>
      <point x="-44.12" y="-217.68"/>
      <point x="-12.92" y="-221.28"/>
      <point x="15.32" y="-221.28" type="curve" smooth="yes"/>
      <point x="150.0" y="-221.28"/>
      <point x="191.16" y="-141.0"/>
      <point x="207.8" y="52.08" type="curve" smooth="yes"/>
      <point x="293.44" y="1026.0" type="line"/>
      <point x="506.04" y="1026.0" type="line"/>
      <point x="417.76" y="22.04" type="line" smooth="yes"/>
      <point x="397.44" y="-211.44"/>
      <point x="313.08" y="-382.8"/>
    </contour>
  </outline>
</glyph>
<glyph name="dotaccent" format="1">
  <advance width="524.08340869"/>
  <unicode hex="02D9"/>
  <outline>
    <contour>
      <point x="276.766888611" y="1239.88" type="line"/>
      <point x="294.206888611" y="1440.96" type="line"/>
      <point x="503.566888611" y="1440.96" type="line"/>
      <point x="486.446888611" y="1239.88" type="line"/>
    </contour>
  </outline>
</glyph>
<glyph name="pi" format="1">
  <advance width="1288"/>
  <unicode hex="03C0"/>
  <outline>
    <contour>
      <point x="1015" y="-8" type="curve" smooth="yes"/>
      <point x="859" y="-8"/>
      <point x="812" y="73"/>
      <point x="830" y="279" type="curve" smooth="yes"/>
      <point x="885" y="907" type="line"/>
      <point x="514" y="907" type="line"/>
      <point x="514" y="907"/>
      <point x="404" y="169"/>
      <point x="296" y="0" type="curve"/>
      <point x="127" y="0" type="line"/>
      <point x="242" y="177"/>
      <point x="311" y="616"/>
      <point x="345" y="907" type="curve"/>
      <point x="225" y="904"/>
      <point x="140" y="885"/>
      <point x="63" y="846" type="curve"/>
      <point x="57" y="977" type="line"/>
      <point x="129" y="1029"/>
      <point x="235" y="1040"/>
      <point x="415" y="1040" type="curve" smooth="yes"/>
      <point x="1260" y="1040" type="line"/>
      <point x="1248" y="907" type="line"/>
      <point x="1044" y="907" type="line"/>
      <point x="990" y="288" type="line" smooth="yes"/>
      <point x="985" y="228"/>
      <point x="979" y="147"/>
      <point x="1076" y="147" type="curve" smooth="yes"/>
      <point x="1097" y="147"/>
      <point x="1124" y="151"/>
      <point x="1157" y="160" type="curve"/>
      <point x="1154" y="140"/>
      <point x="1151" y="120"/>
      <point x="1149" y="100" type="curve" smooth="yes"/>
      <point x="1146" y="69"/>
      <point x="1146" y="38"/>
      <point x="1153" y="6" type="curve"/>
      <point x="1100" y="-3"/>
      <point x="1054" y="-8"/>
    </contour>
  </outline>
</glyph>
<glyph name="emdash" format="1">
  <advance width="2171.0"/>
  <unicode hex="2014"/>
  <outline>
    <contour>
      <point x="54.12" y="467.92" type="line"/>
      <point x="70.2" y="644.36" type="line"/>
      <point x="2197.84" y="644.36" type="line"/>
      <point x="2181.76" y="467.92" type="line"/>
    </contour>
  </outline>
</glyph>
<glyph name="ellipsis" format="1">
  <advance width="1620.0"/>
  <unicode hex="2026"/>
  <outline>
    <contour>
      <point x="122.8" y="-7.48" type="line"/>
      <point x="143.52" y="237.88" type="line"/>
      <point x="409.48" y="237.88" type="line"/>
      <point x="389.44" y="-7.48" type="line"/>
    </contour>
    <contour>
      <point x="651.92" y="-7.48" type="line"/>
      <point x="672.64" y="237.88" type="line"/>
      <point x="938.6" y="237.88" type="line"/>
      <point x="918.56" y="-7.48" type="line"/>
    </contour>
    <contour>
      <point x="1181.04" y="-7.48" type="line"/>
      <point x="1201.76" y="237.88" type="line"/>
      <point x="1466.36" y="237.88" type="line"/>
      <point x="1445.64" y="-7.48" type="line"/>
    </contour>
  </outline>
</glyph>
<glyph name="trademark" format="1">
  <advance width="1869.0"/>
  <unicode hex="2122"/>
  <outline>
    <contour>
      <point x="867.6" y="656.76" type="line"/>
      <point x="934.96" y="1432.64" type="line"/>
      <point x="1161.0" y="1432.64" type="line"/>
      <point x="1325.2" y="942.16" type="line"/>
      <point x="1584.44" y="1432.64" type="line"/>
      <point x="1800.48" y="1432.64" type="line"/>
      <point x="1733.12" y="656.76" type="line"/>
      <point x="1570.32" y="656.76" type="line"/>
      <point x="1612.12" y="1136.16" type="line"/>
      <point x="1348.68" y="656.76" type="line"/>
      <point x="1231.28" y="656.76" type="line"/>
      <point x="1067.8" y="1129.04" type="line"/>
      <point x="1026.68" y="656.76" type="line"/>
    </contour>
    <contour>
      <point x="392.0" y="656.76" type="line"/>
      <point x="447.28" y="1291.52" type="line"/>
      <point x="201.08" y="1291.52" type="line"/>
      <point x="213.16" y="1432.64" type="line"/>
      <point x="876.32" y="1432.64" type="line"/>
      <point x="863.24" y="1291.52" type="line"/>
      <point x="612.08" y="1291.52" type="line"/>
      <point x="556.8" y="656.76" type="line"/>
    </contour>
  </outline>
</glyph>
<glyph name="minus" format="1">
  <advance width="1381.52"/>
  <unicode hex="2212"/>
  <outline>
    <contour>
      <point x="202.24" y="372.92" type="line"/>
      <point x="216.96" y="547.32" type="line"/>
      <point x="1226.32" y="547.32" type="line"/>
      <point x="1211.6" y="372.92" type="line"/>
    </contour>
  </outline>
</glyph>
<glyph name="radical" format="1">
  <advance width="1314.0"/>
  <unicode hex="221A"/>
  <outline>
    <contour>
      <point x="548.28" y="-146.88" type="line"/>
      <point x="302.52" y="658.04" type="line"/>
      <point x="300.48" y="657.36"/>
      <point x="135.32" y="628.68"/>
      <point x="135.32" y="628.68" type="curve"/>
      <point x="114.44" y="780.12" type="line"/>
      <point x="457.64" y="835.88" type="line"/>
      <point x="646.4" y="170.2" type="line"/>
      <point x="1146.08" y="1571.52" type="line"/>
      <point x="1333.2" y="1571.52" type="line"/>
      <point x="724.08" y="-146.88" type="line"/>
    </contour>
  </outline>
</glyph>
